<?xml version="1.0" encoding="UTF-8" standalone="no"?>
<svg
   xmlns:dc="http://purl.org/dc/elements/1.1/"
   xmlns:cc="http://creativecommons.org/ns#"
   xmlns:rdf="http://www.w3.org/1999/02/22-rdf-syntax-ns#"
   xmlns:svg="http://www.w3.org/2000/svg"
   xmlns="http://www.w3.org/2000/svg"
   viewBox="0 0 793.70135 1122.52"
   height="1122.52"
   width="793.70135"
   xml:space="preserve"
   id="svg2"
   version="1.1"><metadata
     id="metadata8"><rdf:RDF><cc:Work
         rdf:about=""><dc:format>image/svg+xml</dc:format><dc:type
           rdf:resource="http://purl.org/dc/dcmitype/StillImage" /></cc:Work></rdf:RDF></metadata><defs
     id="defs6"><clipPath
       id="clipPath18"
       clipPathUnits="userSpaceOnUse"><path
         id="path16"
         d="M 0,841.89 H 595.276 V 0 H 0 Z" /></clipPath><clipPath
       id="clipPath28"
       clipPathUnits="userSpaceOnUse"><path
         style="clip-rule:evenodd"
         id="path26"
         d="m 291.725,769.338 c 106.953,0 193.655,-80.637 193.655,-180.112 0,-99.471 -86.702,-180.108 -193.655,-180.108 -106.952,0 -193.654,80.637 -193.654,180.108 0,99.475 86.702,180.112 193.654,180.112" /></clipPath><radialGradient
       id="radialGradient42"
       spreadMethod="pad"
       gradientTransform="matrix(307.84753,0,0,-316.99481,291.72217,726.11328)"
       gradientUnits="userSpaceOnUse"
       r="1"
       cy="0"
       cx="0"
       fy="0"
       fx="0"><stop
         id="stop34"
         offset="0"
         style="stop-opacity:1;stop-color:#00adef" /><stop
         id="stop36"
         offset="0.15"
         style="stop-opacity:1;stop-color:#00adef" /><stop
         id="stop38"
         offset="0.85"
         style="stop-opacity:1;stop-color:#2e3192" /><stop
         id="stop40"
         offset="1"
         style="stop-opacity:1;stop-color:#2e3192" /></radialGradient><clipPath
       id="clipPath56"
       clipPathUnits="userSpaceOnUse"><path
         style="clip-rule:evenodd"
         id="path54"
         d="m 188.083,640.595 c 30.21,0 54.7,-31.02 54.7,-69.286 0,-38.265 -24.49,-69.286 -54.7,-69.286 -30.208,0 -54.698,31.021 -54.698,69.286 0,38.266 24.49,69.286 54.698,69.286" /></clipPath><radialGradient
       id="radialGradient70"
       spreadMethod="pad"
       gradientTransform="matrix(70.963333,0,0,-69.287811,188.08301,571.30957)"
       gradientUnits="userSpaceOnUse"
       r="1"
       cy="0"
       cx="0"
       fy="0"
       fx="0"><stop
         id="stop62"
         offset="0"
         style="stop-opacity:1;stop-color:#ffffff" /><stop
         id="stop64"
         offset="0.1"
         style="stop-opacity:1;stop-color:#ffffff" /><stop
         id="stop66"
         offset="0.9"
         style="stop-opacity:1;stop-color:#e6c781" /><stop
         id="stop68"
         offset="1"
         style="stop-opacity:1;stop-color:#e6c781" /></radialGradient><clipPath
       id="clipPath80"
       clipPathUnits="userSpaceOnUse"><path
         style="clip-rule:evenodd"
         id="path78"
         d="m 320.82,614.339 c 27.794,0 50.323,-22.855 50.323,-51.051 0,-28.197 -22.529,-51.052 -50.323,-51.052 -27.792,0 -50.323,22.855 -50.323,51.052 0,28.196 22.531,51.051 50.323,51.051" /></clipPath><radialGradient
       id="radialGradient94"
       spreadMethod="pad"
       gradientTransform="matrix(53.37001,0,0,-51.049591,320.82129,563.28467)"
       gradientUnits="userSpaceOnUse"
       r="1"
       cy="0"
       cx="0"
       fy="0"
       fx="0"><stop
         id="stop86"
         offset="0"
         style="stop-opacity:1;stop-color:#ffffff" /><stop
         id="stop88"
         offset="0.1"
         style="stop-opacity:1;stop-color:#ffffff" /><stop
         id="stop90"
         offset="0.9"
         style="stop-opacity:1;stop-color:#cfa550" /><stop
         id="stop92"
         offset="1"
         style="stop-opacity:1;stop-color:#cfa550" /></radialGradient><clipPath
       id="clipPath104"
       clipPathUnits="userSpaceOnUse"><path
         style="clip-rule:evenodd"
         id="path102"
         d="m 350.182,421.604 c 3.043,-7.846 6.089,-15.694 9.131,-23.537 4.059,-7.544 28.618,16.108 23.652,23.651 0.053,0.978 0.101,1.95 0.151,2.923 -2.316,2.848 -7.655,6.824 -11.61,7.17 -12.938,-0.577 -19.698,-3.981 -21.324,-10.207" /></clipPath><radialGradient
       id="radialGradient118"
       spreadMethod="pad"
       gradientTransform="matrix(27.815704,0,0,-27.815704,362.55273,424.41992)"
       gradientUnits="userSpaceOnUse"
       r="1"
       cy="0"
       cx="0"
       fy="0"
       fx="0"><stop
         id="stop110"
         offset="0"
         style="stop-opacity:1;stop-color:#ffffff" /><stop
         id="stop112"
         offset="0.05"
         style="stop-opacity:1;stop-color:#ffffff" /><stop
         id="stop114"
         offset="0.95"
         style="stop-opacity:1;stop-color:#fbca8e" /><stop
         id="stop116"
         offset="1"
         style="stop-opacity:1;stop-color:#fbca8e" /></radialGradient><clipPath
       id="clipPath128"
       clipPathUnits="userSpaceOnUse"><path
         style="clip-rule:evenodd"
         id="path126"
         d="m 317.827,411.041 c 1.094,-11.07 2.189,-22.144 3.281,-33.214 1.896,-9.397 40.707,8.871 36.388,18.875 -2.909,8.307 -5.819,16.613 -8.725,24.92 -13.762,1.65 -23.619,-3.248 -30.944,-10.581" /></clipPath><radialGradient
       id="radialGradient138"
       spreadMethod="pad"
       gradientTransform="matrix(35.042206,0,0,-35.042206,335.82422,410.2627)"
       gradientUnits="userSpaceOnUse"
       r="1"
       cy="0"
       cx="0"
       fy="0"
       fx="0"><stop
         id="stop134"
         offset="0"
         style="stop-opacity:1;stop-color:#ffffff" /><stop
         id="stop136"
         offset="1"
         style="stop-opacity:1;stop-color:#fbca8e" /></radialGradient><clipPath
       id="clipPath148"
       clipPathUnits="userSpaceOnUse"><path
         style="clip-rule:evenodd"
         id="path146"
         d="m 274.987,404.841 c 1.973,-12.123 1.428,-24.751 3.823,-36.794 1.893,-8.943 39.946,-2.043 38.432,8.188 -0.564,11.554 -1.129,23.113 -1.691,34.671 -17.713,3.664 -29.951,0.749 -40.564,-6.065" /></clipPath><radialGradient
       id="radialGradient158"
       spreadMethod="pad"
       gradientTransform="matrix(37.892685,0,0,-37.8927,296.97949,401.81348)"
       gradientUnits="userSpaceOnUse"
       r="1"
       cy="0"
       cx="0"
       fy="0"
       fx="0"><stop
         id="stop154"
         offset="0"
         style="stop-opacity:1;stop-color:#ffffff" /><stop
         id="stop156"
         offset="1"
         style="stop-opacity:1;stop-color:#fbca8e" /></radialGradient><clipPath
       id="clipPath168"
       clipPathUnits="userSpaceOnUse"><path
         style="clip-rule:evenodd"
         id="path166"
         d="m 232.636,402.78 c -1.593,-11.275 -3.178,-22.548 -4.769,-33.823 0.702,-12.831 42.887,-14.381 43.437,0 v 34.624 c -12.58,7.451 -26.053,5.585 -38.668,-0.801" /></clipPath><radialGradient
       id="radialGradient178"
       spreadMethod="pad"
       gradientTransform="matrix(38.742767,0,0,-38.742767,248.71631,397.49121)"
       gradientUnits="userSpaceOnUse"
       r="1"
       cy="0"
       cx="0"
       fy="0"
       fx="0"><stop
         id="stop174"
         offset="0"
         style="stop-opacity:1;stop-color:#ffffff" /><stop
         id="stop176"
         offset="1"
         style="stop-opacity:1;stop-color:#fbca8e" /></radialGradient><clipPath
       id="clipPath188"
       clipPathUnits="userSpaceOnUse"><path
         style="clip-rule:evenodd"
         id="path186"
         d="m 191.487,407.944 c -3.084,-12.311 -5.194,-24.624 -6.146,-36.94 1.696,-12.78 36.888,-11.02 36.842,-2.047 1.626,9.873 3.288,19.768 6.139,30.247 0.432,1.294 0.86,2.587 1.291,3.884 -12.099,11.95 -24.809,13.567 -38.126,4.856" /></clipPath><radialGradient
       id="radialGradient198"
       spreadMethod="pad"
       gradientTransform="matrix(40.790146,0,0,-40.790146,207.03223,402.61328)"
       gradientUnits="userSpaceOnUse"
       r="1"
       cy="0"
       cx="0"
       fy="0"
       fx="0"><stop
         id="stop194"
         offset="0"
         style="stop-opacity:1;stop-color:#ffffff" /><stop
         id="stop196"
         offset="1"
         style="stop-opacity:1;stop-color:#fbca8e" /></radialGradient><clipPath
       id="clipPath208"
       clipPathUnits="userSpaceOnUse"><path
         style="clip-rule:evenodd"
         id="path206"
         d="m 165.333,411.715 c -3.873,-10.809 -7.312,-21.457 -8.42,-32.295 -3.364,-13.323 22.917,-13.585 24.334,-7.279 2.255,12.055 4.511,24.115 6.769,36.171 -5.318,6.748 -12.879,7.88 -22.683,3.403" /></clipPath><radialGradient
       id="radialGradient218"
       spreadMethod="pad"
       gradientTransform="matrix(23.587448,0,0,-23.587463,173.5708,391.7334)"
       gradientUnits="userSpaceOnUse"
       r="1"
       cy="0"
       cx="0"
       fy="0"
       fx="0"><stop
         id="stop214"
         offset="0"
         style="stop-opacity:1;stop-color:#ffffff" /><stop
         id="stop216"
         offset="1"
         style="stop-opacity:1;stop-color:#fbca8e" /></radialGradient><clipPath
       id="clipPath228"
       clipPathUnits="userSpaceOnUse"><path
         style="clip-rule:evenodd"
         id="path226"
         d="m 149.342,416.584 c -0.053,-0.034 -0.108,-0.063 -0.16,-0.097 -2.728,-8.336 -6.289,-15.841 -10.234,-22.969 -6.152,-10.602 9.058,-25.118 14.1,-14.326 3.252,11.201 6.502,22.405 9.751,33.605 -3.628,4.528 -9.329,4.814 -13.457,3.787" /></clipPath><radialGradient
       id="radialGradient238"
       spreadMethod="pad"
       gradientTransform="matrix(23.762222,0,0,-23.762222,152.1748,399.15137)"
       gradientUnits="userSpaceOnUse"
       r="1"
       cy="0"
       cx="0"
       fy="0"
       fx="0"><stop
         id="stop234"
         offset="0"
         style="stop-opacity:1;stop-color:#ffffff" /><stop
         id="stop236"
         offset="1"
         style="stop-opacity:1;stop-color:#fbca8e" /></radialGradient><clipPath
       id="clipPath248"
       clipPathUnits="userSpaceOnUse"><path
         style="clip-rule:evenodd"
         id="path246"
         d="m 149.857,281.069 v 32.312 c 3.219,2.3 6.437,4.596 9.655,6.895 -0.68,5.055 0.009,9.418 2.068,13.105 -6.377,-2.081 -14.111,-0.577 -21.377,-0.692 -2.285,-3.829 -2.515,-8.68 -2.23,-13.276 0.086,-11.723 5.987,-21.508 5.874,-31.524 0.798,-3.353 3.357,-6.222 6.01,-6.82" /></clipPath><radialGradient
       id="radialGradient258"
       spreadMethod="pad"
       gradientTransform="matrix(41.849014,0,0,-41.849014,146.88232,291.5332)"
       gradientUnits="userSpaceOnUse"
       r="1"
       cy="0"
       cx="0"
       fy="0"
       fx="0"><stop
         id="stop254"
         offset="0"
         style="stop-opacity:1;stop-color:#ffffff" /><stop
         id="stop256"
         offset="1"
         style="stop-opacity:1;stop-color:#fbca8e" /></radialGradient><clipPath
       id="clipPath268"
       clipPathUnits="userSpaceOnUse"><path
         style="clip-rule:evenodd"
         id="path266"
         d="m 172.968,268.896 c -0.345,11.84 -0.695,23.681 -1.045,35.521 1.609,2.296 3.218,4.596 4.827,6.896 -5.516,2.758 -11.034,5.518 -16.549,8.273 -2.989,-2.296 -5.977,-4.596 -8.966,-6.896 0.004,-10.169 0.516,-20.589 1.531,-31.263 0.002,0 0.006,0.005 0.008,0.005 1.858,-10.013 11.074,-13.5 20.194,-12.536" /></clipPath><radialGradient
       id="radialGradient278"
       spreadMethod="pad"
       gradientTransform="matrix(40.167877,0,0,-40.167877,161.69434,279.41895)"
       gradientUnits="userSpaceOnUse"
       r="1"
       cy="0"
       cx="0"
       fy="0"
       fx="0"><stop
         id="stop274"
         offset="0"
         style="stop-opacity:1;stop-color:#ffffff" /><stop
         id="stop276"
         offset="1"
         style="stop-opacity:1;stop-color:#fbca8e" /></radialGradient><clipPath
       id="clipPath288"
       clipPathUnits="userSpaceOnUse"><path
         style="clip-rule:evenodd"
         id="path286"
         d="m 203.072,264.713 c -1.419,11.167 -2.837,22.329 -4.254,33.496 0.689,2.3 1.377,4.6 2.068,6.899 -2.197,4.259 -12.609,4.866 -21.377,6.205 -2.523,-2.528 -4.363,-5.059 -5.518,-7.586 0.596,-11.681 1.195,-23.357 1.788,-35.038 7.917,-9.852 17.1,-9.43 27.293,-3.976" /></clipPath><radialGradient
       id="radialGradient298"
       spreadMethod="pad"
       gradientTransform="matrix(38.325592,0,0,-38.325592,187.94922,272.9873)"
       gradientUnits="userSpaceOnUse"
       r="1"
       cy="0"
       cx="0"
       fy="0"
       fx="0"><stop
         id="stop294"
         offset="0"
         style="stop-opacity:1;stop-color:#ffffff" /><stop
         id="stop296"
         offset="1"
         style="stop-opacity:1;stop-color:#fbca8e" /></radialGradient><clipPath
       id="clipPath308"
       clipPathUnits="userSpaceOnUse"><path
         style="clip-rule:evenodd"
         id="path306"
         d="m 239.28,263.172 c -0.255,12.847 -0.44,27.093 -1.333,40.243 -8.285,3.93 -21.895,1.887 -35.681,1.002 -0.691,-2.067 -1.38,-4.136 -2.071,-6.208 1.439,-11.575 3.118,-22.438 5.032,-32.595 12.714,-8.904 23.708,-9.713 34.053,-2.442" /></clipPath><radialGradient
       id="radialGradient318"
       spreadMethod="pad"
       gradientTransform="matrix(36.081497,0,0,-36.081497,219.34473,269.65918)"
       gradientUnits="userSpaceOnUse"
       r="1"
       cy="0"
       cx="0"
       fy="0"
       fx="0"><stop
         id="stop314"
         offset="0"
         style="stop-opacity:1;stop-color:#ffffff" /><stop
         id="stop316"
         offset="1"
         style="stop-opacity:1;stop-color:#fbca8e" /></radialGradient><clipPath
       id="clipPath328"
       clipPathUnits="userSpaceOnUse"><path
         style="clip-rule:evenodd"
         id="path326"
         d="m 282.782,268.058 c -0.382,12.59 -0.356,26.89 -1.654,39.026 -13.854,-2.274 -27.021,-2.355 -40.247,-2.667 0.143,-14.354 0.491,-28.302 1.74,-40.437 19.043,-8.647 31.25,-5.202 40.161,4.078" /></clipPath><radialGradient
       id="radialGradient338"
       spreadMethod="pad"
       gradientTransform="matrix(33.652344,0,0,-33.652344,260.99463,273.42969)"
       gradientUnits="userSpaceOnUse"
       r="1"
       cy="0"
       cx="0"
       fy="0"
       fx="0"><stop
         id="stop334"
         offset="0"
         style="stop-opacity:1;stop-color:#ffffff" /><stop
         id="stop336"
         offset="1"
         style="stop-opacity:1;stop-color:#fbca8e" /></radialGradient><clipPath
       id="clipPath348"
       clipPathUnits="userSpaceOnUse"><path
         style="clip-rule:evenodd"
         id="path346"
         d="m 321.505,277.329 c -0.386,10.181 -2.502,20.358 -5.459,30.534 -0.807,1.609 -1.957,3.218 -3.448,4.827 -4.545,-4.903 -17.308,-4.874 -28.963,-5.513 v -7.587 c -0.089,-12.409 0.545,-22.649 1.897,-30.728 15.124,-3.416 28.071,-3.913 35.973,8.467" /></clipPath><radialGradient
       id="radialGradient358"
       spreadMethod="pad"
       gradientTransform="matrix(32.141998,0,0,-32.141998,301.04883,280.54785)"
       gradientUnits="userSpaceOnUse"
       r="1"
       cy="0"
       cx="0"
       fy="0"
       fx="0"><stop
         id="stop354"
         offset="0"
         style="stop-opacity:1;stop-color:#ffffff" /><stop
         id="stop356"
         offset="1"
         style="stop-opacity:1;stop-color:#fbca8e" /></radialGradient><clipPath
       id="clipPath368"
       clipPathUnits="userSpaceOnUse"><path
         style="clip-rule:evenodd"
         id="path366"
         d="m 353.838,289.418 c -2.462,10.059 -6.233,20.113 -10.209,30.168 -2.763,1.954 -6.211,3.563 -10.343,4.827 -8.26,-2.649 -14.467,-6.327 -18.62,-11.032 1.269,-1.61 2.877,-3.218 4.827,-4.827 1.82,-10.37 3.64,-20.543 5.455,-29.469 12.95,-4.103 22.038,-0.122 28.89,10.333" /></clipPath><radialGradient
       id="radialGradient378"
       spreadMethod="pad"
       gradientTransform="matrix(34.24826,0,0,-34.248276,333.46777,290.16504)"
       gradientUnits="userSpaceOnUse"
       r="1"
       cy="0"
       cx="0"
       fy="0"
       fx="0"><stop
         id="stop374"
         offset="0"
         style="stop-opacity:1;stop-color:#ffffff" /><stop
         id="stop376"
         offset="1"
         style="stop-opacity:1;stop-color:#fbca8e" /></radialGradient><clipPath
       id="clipPath388"
       clipPathUnits="userSpaceOnUse"><path
         style="clip-rule:evenodd"
         id="path386"
         d="m 380.265,306.389 c -4.995,8.634 -11.161,21.322 -15.868,28.882 -5.056,0 -10.883,-0.513 -15.941,-0.513 -6.685,-2.359 -9.159,-5.922 -11.033,-9.654 2.647,-2.065 5.634,-3.442 8.966,-4.137 3.274,-11.853 6.728,-22.645 10.547,-31.229 10.901,-0.717 18.721,3.18 20.334,16.398 1.017,0.063 2.015,0.147 2.995,0.253" /></clipPath><radialGradient
       id="radialGradient398"
       spreadMethod="pad"
       gradientTransform="matrix(35.122681,0,0,-35.122681,360.55664,300.15137)"
       gradientUnits="userSpaceOnUse"
       r="1"
       cy="0"
       cx="0"
       fy="0"
       fx="0"><stop
         id="stop394"
         offset="0"
         style="stop-opacity:1;stop-color:#ffffff" /><stop
         id="stop396"
         offset="1"
         style="stop-opacity:1;stop-color:#fbca8e" /></radialGradient><clipPath
       id="clipPath408"
       clipPathUnits="userSpaceOnUse"><path
         style="clip-rule:evenodd"
         id="path406"
         d="m 389.345,353.966 c -0.528,0.261 -1.056,0.526 -1.582,0.792 -2.2,7.846 -16.274,6.053 -29.652,4.827 -5.335,-4.339 -7.062,-8.075 -8.275,-11.723 -2.054,-6.188 -2.054,-9.637 0,-10.345 h 16.55 c 4.956,-10.118 9.913,-20.24 14.871,-30.358 0.101,-0.206 0.206,-0.412 0.307,-0.619 10.594,1.369 18.446,5.67 18.766,18.045 -3.844,9.608 -7.687,19.217 -11.529,28.824 0.183,0.186 0.362,0.367 0.544,0.557" /></clipPath><radialGradient
       id="radialGradient418"
       spreadMethod="pad"
       gradientTransform="matrix(42.766754,0,0,-42.766769,373.79102,317.91016)"
       gradientUnits="userSpaceOnUse"
       r="1"
       cy="0"
       cx="0"
       fy="0"
       fx="0"><stop
         id="stop414"
         offset="0"
         style="stop-opacity:1;stop-color:#ffffff" /><stop
         id="stop416"
         offset="1"
         style="stop-opacity:1;stop-color:#fbca8e" /></radialGradient><clipPath
       id="clipPath428"
       clipPathUnits="userSpaceOnUse"><path
         style="clip-rule:evenodd"
         id="path426"
         d="m 161.441,333.123 c 4.027,-6.73 8.056,-13.462 12.085,-20.197 -4.442,2.22 -8.883,4.439 -13.325,6.66 -0.169,-0.131 -0.34,-0.258 -0.51,-0.388 -0.088,0.093 -0.175,0.181 -0.263,0.27 -0.116,0.173 -0.228,0.345 -0.331,0.517 0.137,0.098 0.278,0.195 0.415,0.291 -0.666,4.937 -0.023,9.216 1.929,12.847" /></clipPath><radialGradient
       id="radialGradient438"
       spreadMethod="pad"
       gradientTransform="matrix(14.542191,0,0,-14.542191,167.75342,327.46777)"
       gradientUnits="userSpaceOnUse"
       r="1"
       cy="0"
       cx="0"
       fy="0"
       fx="0"><stop
         id="stop434"
         offset="0"
         style="stop-opacity:1;stop-color:#ffffff" /><stop
         id="stop436"
         offset="1"
         style="stop-opacity:1;stop-color:#fbca8e" /></radialGradient><clipPath
       id="clipPath448"
       clipPathUnits="userSpaceOnUse"><path
         style="clip-rule:evenodd"
         id="path446"
         d="m 143.514,334.935 c 0.571,7.67 4.324,12.944 12.731,14.725 5.792,-0.901 11.588,-1.798 17.382,-2.699 4.046,-12.174 8.092,-24.343 12.138,-36.516 -2.092,0.286 -4.217,0.556 -6.256,0.868 h -0.002 c -1,0.256 -2.125,0.438 -3.431,0.543 -4.081,7.612 -8.896,15.467 -12.975,23.079 -5.428,-1.108 -12.203,-0.86 -19.587,0" /></clipPath><radialGradient
       id="radialGradient458"
       spreadMethod="pad"
       gradientTransform="matrix(30.98027,0,0,-30.980286,162.10303,318.68164)"
       gradientUnits="userSpaceOnUse"
       r="1"
       cy="0"
       cx="0"
       fy="0"
       fx="0"><stop
         id="stop454"
         offset="0"
         style="stop-opacity:1;stop-color:#ffffff" /><stop
         id="stop456"
         offset="1"
         style="stop-opacity:1;stop-color:#fbca8e" /></radialGradient><clipPath
       id="clipPath468"
       clipPathUnits="userSpaceOnUse"><path
         style="clip-rule:evenodd"
         id="path466"
         d="m 158.204,351.135 c -0.244,3.024 1.468,5.067 5.141,6.137 8.159,1.234 16.318,2.051 24.481,0 4.242,0.245 6.525,-2.459 6.856,-8.104 0.897,-4.743 1.794,-9.49 2.693,-14.233 -0.164,-5.649 -0.328,-11.293 -0.49,-16.942 -2.654,-3.394 -5.921,-5.357 -10.529,-4.17 -3.917,11.289 -7.835,22.582 -11.75,33.874 -5.467,1.147 -10.935,2.292 -16.402,3.438" /></clipPath><radialGradient
       id="radialGradient478"
       spreadMethod="pad"
       gradientTransform="matrix(36.940536,0,0,-36.940536,177.77637,321.58301)"
       gradientUnits="userSpaceOnUse"
       r="1"
       cy="0"
       cx="0"
       fy="0"
       fx="0"><stop
         id="stop474"
         offset="0"
         style="stop-opacity:1;stop-color:#ffffff" /><stop
         id="stop476"
         offset="1"
         style="stop-opacity:1;stop-color:#fbca8e" /></radialGradient><clipPath
       id="clipPath490"
       clipPathUnits="userSpaceOnUse"><path
         style="clip-rule:evenodd"
         id="path488"
         d="m 323.832,578.518 c 9.249,0 16.745,-7.498 16.745,-16.745 0,-9.248 -7.496,-16.746 -16.745,-16.746 -9.249,0 -16.745,7.498 -16.745,16.746 0,9.247 7.496,16.745 16.745,16.745" /></clipPath><radialGradient
       id="radialGradient504"
       spreadMethod="pad"
       gradientTransform="matrix(16.745346,0,0,-16.745346,323.83105,561.77246)"
       gradientUnits="userSpaceOnUse"
       r="1"
       cy="0"
       cx="0"
       fy="0"
       fx="0"><stop
         id="stop496"
         offset="0"
         style="stop-opacity:1;stop-color:#99d420" /><stop
         id="stop498"
         offset="0.05"
         style="stop-opacity:1;stop-color:#99d420" /><stop
         id="stop500"
         offset="0.95"
         style="stop-opacity:1;stop-color:#231f20" /><stop
         id="stop502"
         offset="1"
         style="stop-opacity:1;stop-color:#231f20" /></radialGradient><clipPath
       id="clipPath514"
       clipPathUnits="userSpaceOnUse"><path
         style="clip-rule:evenodd"
         id="path512"
         d="m 186.727,590.554 c 13.584,0 24.595,-11.013 24.595,-24.595 0,-13.582 -11.011,-24.594 -24.595,-24.594 -13.584,0 -24.595,11.012 -24.595,24.594 0,13.582 11.011,24.595 24.595,24.595" /></clipPath><radialGradient
       id="radialGradient528"
       spreadMethod="pad"
       gradientTransform="matrix(24.594711,0,0,-24.594727,186.72754,565.96045)"
       gradientUnits="userSpaceOnUse"
       r="1"
       cy="0"
       cx="0"
       fy="0"
       fx="0"><stop
         id="stop520"
         offset="0"
         style="stop-opacity:1;stop-color:#99d420" /><stop
         id="stop522"
         offset="0.05"
         style="stop-opacity:1;stop-color:#99d420" /><stop
         id="stop524"
         offset="0.95"
         style="stop-opacity:1;stop-color:#231f20" /><stop
         id="stop526"
         offset="1"
         style="stop-opacity:1;stop-color:#231f20" /></radialGradient><clipPath
       id="clipPath556"
       clipPathUnits="userSpaceOnUse"><path
         style="clip-rule:evenodd"
         id="path554"
         d="m 365.135,334.067 c -5.872,-4.772 -12.348,-9.086 -19.429,-12.944 -3.059,0.732 -5.819,2.06 -8.283,3.981 1.874,3.732 4.348,7.295 11.033,9.654 5.058,0 10.885,0.513 15.941,0.513 0.243,-0.387 0.487,-0.792 0.738,-1.204" /></clipPath><radialGradient
       id="radialGradient566"
       spreadMethod="pad"
       gradientTransform="matrix(13.85434,0,0,-13.854355,351.2793,328.19629)"
       gradientUnits="userSpaceOnUse"
       r="1"
       cy="0"
       cx="0"
       fy="0"
       fx="0"><stop
         id="stop562"
         offset="0"
         style="stop-opacity:1;stop-color:#ffffff" /><stop
         id="stop564"
         offset="1"
         style="stop-opacity:1;stop-color:#fbca8e" /></radialGradient><clipPath
       id="clipPath576"
       clipPathUnits="userSpaceOnUse"><path
         style="clip-rule:evenodd"
         id="path574"
         d="m 314.919,313.069 c 0.226,0.497 0.497,0.982 0.807,1.45 4.122,4.166 9.976,7.46 17.56,9.894 4.019,-1.23 7.389,-2.784 10.111,-4.663 -7.697,-4.849 -15.528,-9.204 -24.026,-11.095 -1.771,1.474 -3.254,2.945 -4.452,4.414" /></clipPath><radialGradient
       id="radialGradient586"
       spreadMethod="pad"
       gradientTransform="matrix(14.237717,0,0,-14.237717,329.1582,316.53711)"
       gradientUnits="userSpaceOnUse"
       r="1"
       cy="0"
       cx="0"
       fy="0"
       fx="0"><stop
         id="stop582"
         offset="0"
         style="stop-opacity:1;stop-color:#ffffff" /><stop
         id="stop584"
         offset="1"
         style="stop-opacity:1;stop-color:#fbca8e" /></radialGradient><clipPath
       id="clipPath596"
       clipPathUnits="userSpaceOnUse"><path
         style="clip-rule:evenodd"
         id="path594"
         d="m 311.672,311.848 c 0.49,0.08 0.981,0.16 1.472,0.24 1.229,-1.407 2.196,-2.818 2.902,-4.225 0.027,-0.092 0.053,-0.185 0.08,-0.278 -7.828,-5.404 -19.134,-7.713 -32.491,-8.189 v 0.194 7.587 c 10.943,0.597 22.859,0.614 28.037,4.671" /></clipPath><radialGradient
       id="radialGradient606"
       spreadMethod="pad"
       gradientTransform="matrix(16.245392,0,0,-16.245392,299.87988,305.74512)"
       gradientUnits="userSpaceOnUse"
       r="1"
       cy="0"
       cx="0"
       fy="0"
       fx="0"><stop
         id="stop602"
         offset="0"
         style="stop-opacity:1;stop-color:#ffffff" /><stop
         id="stop604"
         offset="1"
         style="stop-opacity:1;stop-color:#fbca8e" /></radialGradient><clipPath
       id="clipPath616"
       clipPathUnits="userSpaceOnUse"><path
         style="clip-rule:evenodd"
         id="path614"
         d="m 240.885,304.147 c 1.894,0.131 3.789,0.266 5.682,0.397 10.813,0.24 21.655,0.564 32.938,2.283 0.545,0.037 1.093,0.075 1.638,0.113 0.261,-2.456 0.463,-5 0.63,-7.602 -0.076,0 -0.151,-0.005 -0.228,-0.005 -12.592,-4.103 -26.968,-2.848 -40.54,-4.006 -0.054,2.915 -0.09,5.86 -0.12,8.82" /></clipPath><radialGradient
       id="radialGradient626"
       spreadMethod="pad"
       gradientTransform="matrix(20.443893,0,0,-20.443893,261.32764,301.1377)"
       gradientUnits="userSpaceOnUse"
       r="1"
       cy="0"
       cx="0"
       fy="0"
       fx="0"><stop
         id="stop622"
         offset="0"
         style="stop-opacity:1;stop-color:#ffffff" /><stop
         id="stop624"
         offset="1"
         style="stop-opacity:1;stop-color:#fbca8e" /></radialGradient><clipPath
       id="clipPath636"
       clipPathUnits="userSpaceOnUse"><path
         style="clip-rule:evenodd"
         id="path634"
         d="m 224.81,305.74 c 2.36,-0.105 4.721,-0.282 7.084,-0.544 2.231,-0.366 4.267,-0.934 6.053,-1.781 0.183,-2.684 0.333,-5.408 0.461,-8.163 -12.655,0.492 -27.768,0.013 -38.171,2.62 -0.014,0.113 -0.027,0.223 -0.042,0.337 0.691,2.072 1.38,4.141 2.071,6.208 7.896,0.506 15.73,1.395 22.544,1.323" /></clipPath><radialGradient
       id="radialGradient646"
       spreadMethod="pad"
       gradientTransform="matrix(19.106522,0,0,-19.106522,219.30029,300.49707)"
       gradientUnits="userSpaceOnUse"
       r="1"
       cy="0"
       cx="0"
       fy="0"
       fx="0"><stop
         id="stop642"
         offset="0"
         style="stop-opacity:1;stop-color:#ffffff" /><stop
         id="stop644"
         offset="1"
         style="stop-opacity:1;stop-color:#fbca8e" /></radialGradient><clipPath
       id="clipPath658"
       clipPathUnits="userSpaceOnUse"><path
         style="clip-rule:evenodd"
         id="path656"
         d="m 179.355,311.161 c 0.384,0.004 0.765,0.009 1.144,0.009 6.416,-0.932 13.492,-1.567 17.519,-3.564 1.059,-0.704 2.02,-1.538 2.86,-2.527 -0.687,-2.292 -1.374,-4.579 -2.06,-6.87 0.002,-0.021 0.004,-0.043 0.009,-0.067 -8.987,1.04 -17.418,1.233 -24.754,3.917 -0.027,0.56 -0.052,1.112 -0.082,1.668 1.131,2.476 2.919,4.958 5.364,7.434" /></clipPath><radialGradient
       id="radialGradient668"
       spreadMethod="pad"
       gradientTransform="matrix(13.443222,0,0,-13.443222,187.43311,304.65918)"
       gradientUnits="userSpaceOnUse"
       r="1"
       cy="0"
       cx="0"
       fy="0"
       fx="0"><stop
         id="stop664"
         offset="0"
         style="stop-opacity:1;stop-color:#ffffff" /><stop
         id="stop666"
         offset="1"
         style="stop-opacity:1;stop-color:#fbca8e" /></radialGradient><clipPath
       id="clipPath682"
       clipPathUnits="userSpaceOnUse"><path
         style="clip-rule:evenodd"
         id="path680"
         d="m 159.901,319.362 c 2.216,-0.926 4.432,-1.929 6.647,-2.948 3.402,-1.702 6.803,-3.399 10.202,-5.101 -1.609,-2.3 -3.218,-4.6 -4.827,-6.896 0.019,-0.632 0.032,-1.259 0.051,-1.896 -7.759,1.311 -14.886,3.88 -20.733,9.032 -0.002,0.379 -0.006,0.759 -0.006,1.137 2.89,2.224 5.777,4.449 8.666,6.672" /></clipPath><radialGradient
       id="radialGradient692"
       spreadMethod="pad"
       gradientTransform="matrix(12.75769,0,0,-12.75769,163.99023,310.94336)"
       gradientUnits="userSpaceOnUse"
       r="1"
       cy="0"
       cx="0"
       fy="0"
       fx="0"><stop
         id="stop688"
         offset="0"
         style="stop-opacity:1;stop-color:#ffffff" /><stop
         id="stop690"
         offset="1"
         style="stop-opacity:1;stop-color:#fbca8e" /></radialGradient><clipPath
       id="clipPath704"
       clipPathUnits="userSpaceOnUse"><path
         style="clip-rule:evenodd"
         id="path702"
         d="m 161.498,333.355 c -0.141,-0.122 -0.282,-0.244 -0.425,-0.362 -1.757,-4.191 -2.625,-7.957 -1.645,-12.055 0.025,-0.219 0.054,-0.438 0.084,-0.662 -3.218,-2.299 -6.436,-4.595 -9.655,-6.895 v -1.007 c -8.79,4.916 -13.925,11.444 -9.359,20.32 7.15,0.072 14.726,-1.356 21,0.661" /></clipPath><radialGradient
       id="radialGradient714"
       spreadMethod="pad"
       gradientTransform="matrix(12.712906,0,0,-12.712921,151.50732,322.86426)"
       gradientUnits="userSpaceOnUse"
       r="1"
       cy="0"
       cx="0"
       fy="0"
       fx="0"><stop
         id="stop710"
         offset="0"
         style="stop-opacity:1;stop-color:#ffffff" /><stop
         id="stop712"
         offset="1"
         style="stop-opacity:1;stop-color:#fbca8e" /></radialGradient><clipPath
       id="clipPath724"
       clipPathUnits="userSpaceOnUse"><path
         style="clip-rule:evenodd"
         id="path722"
         d="m 173.711,346.699 c -3.403,-4.519 -6.91,-8.538 -10.551,-11.878 -0.021,0.038 -0.04,0.075 -0.059,0.114 -5.428,-1.108 -12.203,-0.86 -19.587,0 0.571,7.67 4.324,12.944 12.731,14.725 5.792,-0.901 11.588,-1.798 17.382,-2.699 0.029,-0.089 0.057,-0.173 0.084,-0.262" /></clipPath><radialGradient
       id="radialGradient734"
       spreadMethod="pad"
       gradientTransform="matrix(15.098618,0,0,-15.098618,158.61084,342.08398)"
       gradientUnits="userSpaceOnUse"
       r="1"
       cy="0"
       cx="0"
       fy="0"
       fx="0"><stop
         id="stop730"
         offset="0"
         style="stop-opacity:1;stop-color:#ffffff" /><stop
         id="stop732"
         offset="1"
         style="stop-opacity:1;stop-color:#fbca8e" /></radialGradient><clipPath
       id="clipPath744"
       clipPathUnits="userSpaceOnUse"><path
         style="clip-rule:evenodd"
         id="path742"
         d="m 158.204,351.135 c -0.244,3.024 1.468,5.067 5.141,6.137 8.159,1.234 16.318,2.051 24.481,0 0.948,0.055 1.797,-0.043 2.549,-0.282 -5.761,-2.713 -11.192,-5.678 -15.746,-9.355 -0.008,0.02 -0.016,0.042 -0.023,0.062 -5.467,1.147 -10.935,2.292 -16.402,3.438" /></clipPath><radialGradient
       id="radialGradient754"
       spreadMethod="pad"
       gradientTransform="matrix(16.096909,0,0,-16.096909,174.27637,352.75391)"
       gradientUnits="userSpaceOnUse"
       r="1"
       cy="0"
       cx="0"
       fy="0"
       fx="0"><stop
         id="stop750"
         offset="0"
         style="stop-opacity:1;stop-color:#ffffff" /><stop
         id="stop752"
         offset="1"
         style="stop-opacity:1;stop-color:#fbca8e" /></radialGradient><clipPath
       id="clipPath768"
       clipPathUnits="userSpaceOnUse"><path
         style="clip-rule:evenodd"
         id="path766"
         d="m 349.905,348.075 c 0.55,-1.537 1.342,-3.197 2.507,-5.042 6.299,-1.382 12.599,-1.377 18.896,-1.179 6.653,4.085 11.473,9.082 15.89,14.288 -3.428,6.234 -16.56,4.591 -29.088,3.441 -5.231,-4.254 -6.994,-7.928 -8.205,-11.508" /></clipPath><radialGradient
       id="radialGradient778"
       spreadMethod="pad"
       gradientTransform="matrix(18.648071,0,0,-18.648071,368.55176,350.45996)"
       gradientUnits="userSpaceOnUse"
       r="1"
       cy="0"
       cx="0"
       fy="0"
       fx="0"><stop
         id="stop774"
         offset="0"
         style="stop-opacity:1;stop-color:#ffffff" /><stop
         id="stop776"
         offset="1"
         style="stop-opacity:1;stop-color:#fbca8e" /></radialGradient><clipPath
       id="clipPath788"
       clipPathUnits="userSpaceOnUse"><path
         style="clip-rule:evenodd"
         id="path786"
         d="m 110.487,536.736 c 7.889,-25.729 22.725,-44.826 41.09,-60.526 -12.553,2.895 -24.587,9.318 -35.473,20.54 -13.211,-18.324 1.78,-40.417 14.937,-41.074 35.563,-0.96 71.984,26.339 97.084,54.767 -32.048,-29.561 -60.531,-21.958 -86.506,4.974 -6.634,6.606 -11.615,15.372 -15.997,25.194 -11.351,30.054 -10.491,55.516 -5.955,81.527 5.689,18.311 14.339,34.945 39.17,45.593 15.745,6.074 30.296,4.073 43.859,-4.616 38.518,-33.151 49.158,-123.451 29.018,-149.572 4.118,4.575 8.469,13.387 14.054,13.185 14.422,53.414 -0.667,130.801 -39.536,157.405 -16.227,10.906 -33.986,10.459 -51.435,3.795 -26.149,-12.017 -42.513,-33.327 -52.275,-61.212 -5.512,-29.809 -2.224,-60.247 7.965,-89.98" /></clipPath><linearGradient
       id="linearGradient802"
       spreadMethod="pad"
       gradientTransform="matrix(-12.27211,-234.1653,-234.16524,12.27211,181.15918,691.27441)"
       gradientUnits="userSpaceOnUse"
       y2="0"
       x2="1"
       y1="0"
       x1="0"><stop
         id="stop794"
         offset="0"
         style="stop-opacity:1;stop-color:#116eb5" /><stop
         id="stop796"
         offset="0.01"
         style="stop-opacity:1;stop-color:#116eb5" /><stop
         id="stop798"
         offset="0.99"
         style="stop-opacity:1;stop-color:#8aa8dd" /><stop
         id="stop800"
         offset="1"
         style="stop-opacity:1;stop-color:#8aa8dd" /></linearGradient><clipPath
       id="clipPath812"
       clipPathUnits="userSpaceOnUse"><path
         style="clip-rule:evenodd"
         id="path810"
         d="m 404.344,620.151 c 6.486,-19.393 6.12,-42.413 0.962,-68.861 -9.848,-41.515 -39.27,-62.627 -72.997,-63.334 12.278,-2.579 24.787,-3.097 38.11,3.756 28.571,16.592 54.543,36.651 79.975,57.434 -15.76,-16.373 -28.29,-34.911 -25.227,-63.874 -1.024,-14.527 -7.795,-21.141 -17.176,-24.152 -18.605,-3.556 -37.215,-2.2 -55.822,0.535 -32.687,9.999 -48.023,27.16 -62.799,44.552 17.809,-5.283 38.354,-7.106 53.674,0 15.008,11.331 28.746,30.867 34.352,57.968 3.256,17.548 2.89,35.622 0.549,53.975 -7.624,25.399 -18.981,32.956 -33.444,39.371 -13.538,4.373 -26.149,1.327 -40.088,-5.931 -12.626,-9.085 -20.871,-19.321 -26.09,-33.68 -9.267,-15.467 -12.774,-90.954 -8.524,-102.095 -5.964,7.822 -8.908,9.363 -14.264,10.029 1.786,27.847 1.798,114.883 36.071,143.299 20.764,14.688 43.232,21.92 71.395,10.197 19.578,-12.269 33.569,-28.794 41.343,-59.189" /></clipPath><linearGradient
       id="linearGradient826"
       spreadMethod="pad"
       gradientTransform="matrix(-116.99998,-120,-120,117,410.21289,625.05664)"
       gradientUnits="userSpaceOnUse"
       y2="0"
       x2="1"
       y1="0"
       x1="0"><stop
         id="stop818"
         offset="0"
         style="stop-opacity:1;stop-color:#116eb5" /><stop
         id="stop820"
         offset="0.01"
         style="stop-opacity:1;stop-color:#116eb5" /><stop
         id="stop822"
         offset="0.99"
         style="stop-opacity:1;stop-color:#8aa8dd" /><stop
         id="stop824"
         offset="1"
         style="stop-opacity:1;stop-color:#8aa8dd" /></linearGradient></defs><g
     transform="matrix(1.3333333,0,0,-1.3333333,0,1122.52)"
     id="g10"><g
       id="g12"><g
         clip-path="url(#clipPath18)"
         id="g14"><path
           id="path20"
           style="fill:#000000;fill-opacity:1;fill-rule:evenodd;stroke:none"
           d="m 140.748,285.549 c -10.857,-13.084 -13.201,-34.119 -3.193,-41.516 57.36,-34.414 160.123,-56.734 242.714,-4.794 20.186,16.778 41.466,37.661 57.519,65.129 23.808,32.999 24.107,67.939 3.159,100.942 -11.019,21.864 -17.718,42.012 0.645,55.242 0,4.254 1.291,5.286 1.291,9.545 74.13,100.149 52.922,194.582 -25.889,259.361 C 338.637,787.553 235.13,791.483 145.539,713.49 93.445,661.272 79.157,590.009 115.199,512.294 107.063,496.2 95.888,482.691 107.215,450.017 c 4.271,-7.43 8.78,-14.38 20.76,-6.386 6.233,2.28 15.724,2.427 19.873,-2.931 0.532,-7.455 -1.02,-15.168 -2.309,-22.619 -0.17,-9.523 -5.012,-17.489 -9.582,-25.547 -1.957,-17.451 12.71,-23.664 17.046,-16.486 -3.906,-10.577 29.292,-15.375 30.781,-6.896 -1.186,-12.51 41.644,-12.472 41.595,-2.165 1.064,-2.662 4.747,-7.224 7.329,-8.745 -3.767,-14.232 -19.917,-21.322 -34.017,-23.495 -2.213,7.814 -1.485,20.762 -6.087,23.799 -8.873,2.662 -19.599,0.889 -29.5,0.455 -4.656,-0.666 -6.876,-3.771 -7.984,-7.982 -10.505,-1.829 -13.012,-8.551 -14.372,-15.969 -10.556,-8.95 -4.2,-25.728 0.379,-41.25 0,-3.193 -0.379,-5.059 -0.379,-8.251" /><g
           id="g22"><g
             clip-path="url(#clipPath28)"
             id="g24"><g
               id="g30"><g
                 id="g32"><path
                   id="path44"
                   style="fill:url(#radialGradient42);fill-rule:evenodd;stroke:none"
                   d="m 291.725,769.338 c 106.953,0 193.655,-80.637 193.655,-180.112 0,-99.471 -86.702,-180.108 -193.655,-180.108 -106.952,0 -193.654,80.637 -193.654,180.108 0,99.475 86.702,180.112 193.654,180.112" /></g></g></g></g><path
           id="path46"
           style="fill:#000000;fill-opacity:1;fill-rule:evenodd;stroke:none"
           d="m 197.435,466.231 c 6.711,15.724 14.934,31.111 27.345,45.576 12.024,15.139 23.761,16.52 35.157,1.301 10.851,-18.027 17.906,-37.918 28.759,-58.482 5.2,-15.644 -17.277,-21.764 -35.745,-18.929 -7.622,2.325 -12.396,7.181 -14.324,12.666 -5.003,-6.003 -11.509,-9.949 -24.733,-10.889 -15.213,4.368 -21.487,12.375 -16.459,28.757" /><path
           id="path48"
           style="fill:#000000;fill-opacity:1;fill-rule:evenodd;stroke:none"
           d="m 250.822,530.036 c 12.813,-14.381 28.285,-27.241 45.574,-39.065 29.013,-2.956 54.843,5.38 76.827,27.346 10.166,21.836 15.658,43.93 14.323,66.41 0.255,39.67 -14.347,64.063 -36.459,80.731 -20.338,5.868 -36.174,2.321 -49.481,-6.512 -26.635,-10.994 -36.501,-42.413 -47.214,-64.679 -14.033,39.114 -32.721,71.292 -58.259,84.211 -38.963,7.611 -66.74,-7.148 -83.339,-44.27 -11.258,-38.075 -8.329,-75.858 11.721,-113.288 11.407,-20.437 27.988,-35.883 57.295,-39.063 23.545,2.291 48.713,17.484 69.012,48.179" /><g
           id="g50"><g
             clip-path="url(#clipPath56)"
             id="g52"><g
               id="g58"><g
                 id="g60"><path
                   id="path72"
                   style="fill:url(#radialGradient70);fill-rule:evenodd;stroke:none"
                   d="m 188.083,640.595 c 30.21,0 54.7,-31.02 54.7,-69.286 0,-38.265 -24.49,-69.286 -54.7,-69.286 -30.208,0 -54.698,31.021 -54.698,69.286 0,38.266 24.49,69.286 54.698,69.286" /></g></g></g></g><g
           id="g74"><g
             clip-path="url(#clipPath80)"
             id="g76"><g
               id="g82"><g
                 id="g84"><path
                   id="path96"
                   style="fill:url(#radialGradient94);fill-rule:evenodd;stroke:none"
                   d="m 320.82,614.339 c 27.794,0 50.323,-22.855 50.323,-51.051 0,-28.197 -22.529,-51.052 -50.323,-51.052 -27.792,0 -50.323,22.855 -50.323,51.052 0,28.196 22.531,51.051 50.323,51.051" /></g></g></g></g><g
           id="g98"><g
             clip-path="url(#clipPath104)"
             id="g100"><g
               id="g106"><g
                 id="g108"><path
                   id="path120"
                   style="fill:url(#radialGradient118);fill-rule:evenodd;stroke:none"
                   d="m 350.182,421.604 c 3.043,-7.846 6.089,-15.694 9.131,-23.537 4.059,-7.544 28.618,16.108 23.652,23.651 0.053,0.978 0.101,1.95 0.151,2.923 -2.316,2.848 -7.655,6.824 -11.61,7.17 -12.938,-0.577 -19.698,-3.981 -21.324,-10.207" /></g></g></g></g><g
           id="g122"><g
             clip-path="url(#clipPath128)"
             id="g124"><g
               id="g130"><g
                 id="g132"><path
                   id="path140"
                   style="fill:url(#radialGradient138);fill-rule:evenodd;stroke:none"
                   d="m 317.827,411.041 c 1.094,-11.07 2.189,-22.144 3.281,-33.214 1.896,-9.397 40.707,8.871 36.388,18.875 -2.909,8.307 -5.819,16.613 -8.725,24.92 -13.762,1.65 -23.619,-3.248 -30.944,-10.581" /></g></g></g></g><g
           id="g142"><g
             clip-path="url(#clipPath148)"
             id="g144"><g
               id="g150"><g
                 id="g152"><path
                   id="path160"
                   style="fill:url(#radialGradient158);fill-rule:evenodd;stroke:none"
                   d="m 274.987,404.841 c 1.973,-12.123 1.428,-24.751 3.823,-36.794 1.893,-8.943 39.946,-2.043 38.432,8.188 -0.564,11.554 -1.129,23.113 -1.691,34.671 -17.713,3.664 -29.951,0.749 -40.564,-6.065" /></g></g></g></g><g
           id="g162"><g
             clip-path="url(#clipPath168)"
             id="g164"><g
               id="g170"><g
                 id="g172"><path
                   id="path180"
                   style="fill:url(#radialGradient178);fill-rule:evenodd;stroke:none"
                   d="m 232.636,402.78 c -1.593,-11.275 -3.178,-22.548 -4.769,-33.823 0.702,-12.831 42.887,-14.381 43.437,0 v 34.624 c -12.58,7.451 -26.053,5.585 -38.668,-0.801" /></g></g></g></g><g
           id="g182"><g
             clip-path="url(#clipPath188)"
             id="g184"><g
               id="g190"><g
                 id="g192"><path
                   id="path200"
                   style="fill:url(#radialGradient198);fill-rule:evenodd;stroke:none"
                   d="m 191.487,407.944 c -3.084,-12.311 -5.194,-24.624 -6.146,-36.94 1.696,-12.78 36.888,-11.02 36.842,-2.047 1.626,9.873 3.288,19.768 6.139,30.247 0.432,1.294 0.86,2.587 1.291,3.884 -12.099,11.95 -24.809,13.567 -38.126,4.856" /></g></g></g></g><g
           id="g202"><g
             clip-path="url(#clipPath208)"
             id="g204"><g
               id="g210"><g
                 id="g212"><path
                   id="path220"
                   style="fill:url(#radialGradient218);fill-rule:evenodd;stroke:none"
                   d="m 165.333,411.715 c -3.873,-10.809 -7.312,-21.457 -8.42,-32.295 -3.364,-13.323 22.917,-13.585 24.334,-7.279 2.255,12.055 4.511,24.115 6.769,36.171 -5.318,6.748 -12.879,7.88 -22.683,3.403" /></g></g></g></g><g
           id="g222"><g
             clip-path="url(#clipPath228)"
             id="g224"><g
               id="g230"><g
                 id="g232"><path
                   id="path240"
                   style="fill:url(#radialGradient238);fill-rule:evenodd;stroke:none"
                   d="m 149.342,416.584 c -0.053,-0.034 -0.108,-0.063 -0.16,-0.097 -2.728,-8.336 -6.289,-15.841 -10.234,-22.969 -6.152,-10.602 9.058,-25.118 14.1,-14.326 3.252,11.201 6.502,22.405 9.751,33.605 -3.628,4.528 -9.329,4.814 -13.457,3.787" /></g></g></g></g><g
           id="g242"><g
             clip-path="url(#clipPath248)"
             id="g244"><g
               id="g250"><g
                 id="g252"><path
                   id="path260"
                   style="fill:url(#radialGradient258);fill-rule:evenodd;stroke:none"
                   d="m 149.857,281.069 v 32.312 c 3.219,2.3 6.437,4.596 9.655,6.895 -0.68,5.055 0.009,9.418 2.068,13.105 -6.377,-2.081 -14.111,-0.577 -21.377,-0.692 -2.285,-3.829 -2.515,-8.68 -2.23,-13.276 0.086,-11.723 5.987,-21.508 5.874,-31.524 0.798,-3.353 3.357,-6.222 6.01,-6.82" /></g></g></g></g><g
           id="g262"><g
             clip-path="url(#clipPath268)"
             id="g264"><g
               id="g270"><g
                 id="g272"><path
                   id="path280"
                   style="fill:url(#radialGradient278);fill-rule:evenodd;stroke:none"
                   d="m 172.968,268.896 c -0.345,11.84 -0.695,23.681 -1.045,35.521 1.609,2.296 3.218,4.596 4.827,6.896 -5.516,2.758 -11.034,5.518 -16.549,8.273 -2.989,-2.296 -5.977,-4.596 -8.966,-6.896 0.004,-10.169 0.516,-20.589 1.531,-31.263 0.002,0 0.006,0.005 0.008,0.005 1.858,-10.013 11.074,-13.5 20.194,-12.536" /></g></g></g></g><g
           id="g282"><g
             clip-path="url(#clipPath288)"
             id="g284"><g
               id="g290"><g
                 id="g292"><path
                   id="path300"
                   style="fill:url(#radialGradient298);fill-rule:evenodd;stroke:none"
                   d="m 203.072,264.713 c -1.419,11.167 -2.837,22.329 -4.254,33.496 0.689,2.3 1.377,4.6 2.068,6.899 -2.197,4.259 -12.609,4.866 -21.377,6.205 -2.523,-2.528 -4.363,-5.059 -5.518,-7.586 0.596,-11.681 1.195,-23.357 1.788,-35.038 7.917,-9.852 17.1,-9.43 27.293,-3.976" /></g></g></g></g><g
           id="g302"><g
             clip-path="url(#clipPath308)"
             id="g304"><g
               id="g310"><g
                 id="g312"><path
                   id="path320"
                   style="fill:url(#radialGradient318);fill-rule:evenodd;stroke:none"
                   d="m 239.28,263.172 c -0.255,12.847 -0.44,27.093 -1.333,40.243 -8.285,3.93 -21.895,1.887 -35.681,1.002 -0.691,-2.067 -1.38,-4.136 -2.071,-6.208 1.439,-11.575 3.118,-22.438 5.032,-32.595 12.714,-8.904 23.708,-9.713 34.053,-2.442" /></g></g></g></g><g
           id="g322"><g
             clip-path="url(#clipPath328)"
             id="g324"><g
               id="g330"><g
                 id="g332"><path
                   id="path340"
                   style="fill:url(#radialGradient338);fill-rule:evenodd;stroke:none"
                   d="m 282.782,268.058 c -0.382,12.59 -0.356,26.89 -1.654,39.026 -13.854,-2.274 -27.021,-2.355 -40.247,-2.667 0.143,-14.354 0.491,-28.302 1.74,-40.437 19.043,-8.647 31.25,-5.202 40.161,4.078" /></g></g></g></g><g
           id="g342"><g
             clip-path="url(#clipPath348)"
             id="g344"><g
               id="g350"><g
                 id="g352"><path
                   id="path360"
                   style="fill:url(#radialGradient358);fill-rule:evenodd;stroke:none"
                   d="m 321.505,277.329 c -0.386,10.181 -2.502,20.358 -5.459,30.534 -0.807,1.609 -1.957,3.218 -3.448,4.827 -4.545,-4.903 -17.308,-4.874 -28.963,-5.513 v -7.587 c -0.089,-12.409 0.545,-22.649 1.897,-30.728 15.124,-3.416 28.071,-3.913 35.973,8.467" /></g></g></g></g><g
           id="g362"><g
             clip-path="url(#clipPath368)"
             id="g364"><g
               id="g370"><g
                 id="g372"><path
                   id="path380"
                   style="fill:url(#radialGradient378);fill-rule:evenodd;stroke:none"
                   d="m 353.838,289.418 c -2.462,10.059 -6.233,20.113 -10.209,30.168 -2.763,1.954 -6.211,3.563 -10.343,4.827 -8.26,-2.649 -14.467,-6.327 -18.62,-11.032 1.269,-1.61 2.877,-3.218 4.827,-4.827 1.82,-10.37 3.64,-20.543 5.455,-29.469 12.95,-4.103 22.038,-0.122 28.89,10.333" /></g></g></g></g><g
           id="g382"><g
             clip-path="url(#clipPath388)"
             id="g384"><g
               id="g390"><g
                 id="g392"><path
                   id="path400"
                   style="fill:url(#radialGradient398);fill-rule:evenodd;stroke:none"
                   d="m 380.265,306.389 c -4.995,8.634 -11.161,21.322 -15.868,28.882 -5.056,0 -10.883,-0.513 -15.941,-0.513 -6.685,-2.359 -9.159,-5.922 -11.033,-9.654 2.647,-2.065 5.634,-3.442 8.966,-4.137 3.274,-11.853 6.728,-22.645 10.547,-31.229 10.901,-0.717 18.721,3.18 20.334,16.398 1.017,0.063 2.015,0.147 2.995,0.253" /></g></g></g></g><g
           id="g402"><g
             clip-path="url(#clipPath408)"
             id="g404"><g
               id="g410"><g
                 id="g412"><path
                   id="path420"
                   style="fill:url(#radialGradient418);fill-rule:evenodd;stroke:none"
                   d="m 389.345,353.966 c -0.528,0.261 -1.056,0.526 -1.582,0.792 -2.2,7.846 -16.274,6.053 -29.652,4.827 -5.335,-4.339 -7.062,-8.075 -8.275,-11.723 -2.054,-6.188 -2.054,-9.637 0,-10.345 h 16.55 c 4.956,-10.118 9.913,-20.24 14.871,-30.358 0.101,-0.206 0.206,-0.412 0.307,-0.619 10.594,1.369 18.446,5.67 18.766,18.045 -3.844,9.608 -7.687,19.217 -11.529,28.824 0.183,0.186 0.362,0.367 0.544,0.557" /></g></g></g></g><g
           id="g422"><g
             clip-path="url(#clipPath428)"
             id="g424"><g
               id="g430"><g
                 id="g432"><path
                   id="path440"
                   style="fill:url(#radialGradient438);fill-rule:evenodd;stroke:none"
                   d="m 161.441,333.123 c 4.027,-6.73 8.056,-13.462 12.085,-20.197 -4.442,2.22 -8.883,4.439 -13.325,6.66 -0.169,-0.131 -0.34,-0.258 -0.51,-0.388 -0.088,0.093 -0.175,0.181 -0.263,0.27 -0.116,0.173 -0.228,0.345 -0.331,0.517 0.137,0.098 0.278,0.195 0.415,0.291 -0.666,4.937 -0.023,9.216 1.929,12.847" /></g></g></g></g><g
           id="g442"><g
             clip-path="url(#clipPath448)"
             id="g444"><g
               id="g450"><g
                 id="g452"><path
                   id="path460"
                   style="fill:url(#radialGradient458);fill-rule:evenodd;stroke:none"
                   d="m 143.514,334.935 c 0.571,7.67 4.324,12.944 12.731,14.725 5.792,-0.901 11.588,-1.798 17.382,-2.699 4.046,-12.174 8.092,-24.343 12.138,-36.516 -2.092,0.286 -4.217,0.556 -6.256,0.868 h -0.002 c -1,0.256 -2.125,0.438 -3.431,0.543 -4.081,7.612 -8.896,15.467 -12.975,23.079 -5.428,-1.108 -12.203,-0.86 -19.587,0" /></g></g></g></g><g
           id="g462"><g
             clip-path="url(#clipPath468)"
             id="g464"><g
               id="g470"><g
                 id="g472"><path
                   id="path480"
                   style="fill:url(#radialGradient478);fill-rule:evenodd;stroke:none"
                   d="m 158.204,351.135 c -0.244,3.024 1.468,5.067 5.141,6.137 8.159,1.234 16.318,2.051 24.481,0 4.242,0.245 6.525,-2.459 6.856,-8.104 0.897,-4.743 1.794,-9.49 2.693,-14.233 -0.164,-5.649 -0.328,-11.293 -0.49,-16.942 -2.654,-3.394 -5.921,-5.357 -10.529,-4.17 -3.917,11.289 -7.835,22.582 -11.75,33.874 -5.467,1.147 -10.935,2.292 -16.402,3.438" /></g></g></g></g><path
           id="path482"
           style="fill:#244ca6;fill-opacity:1;fill-rule:evenodd;stroke:none"
           d="m 197.329,333.448 c 16.307,1.579 32.132,9.946 37.16,24.52 5.168,-0.822 10.339,-1.644 15.509,-2.46 -20.143,-26.862 -40.591,-40.425 -57.204,-41.103 1.538,0.787 2.877,2.038 4.09,3.589 0.148,5.152 0.295,10.303 0.445,15.454 m 45.397,122.79 c 5.825,-11.63 14.309,-17.591 25.458,-17.877 16.251,-1.196 23.582,10.981 17.875,22.207 -9.61,15.315 -18.528,31.469 -26,46.039 -6.958,11.259 -14.458,12.763 -22.748,0 -6.689,-13.163 -11.803,-27.99 -21.665,-36.288 -15.819,-14.283 -7.968,-29.397 7.582,-27.084 8.748,1.335 14.749,6.335 19.498,13.003 m 39.207,157.228 c 7.154,11.891 13.576,24.216 25.442,32.574 15.891,11.553 30.827,13.533 47.45,0.437 15.581,-15.876 22.946,-36.002 21.215,-69.632 -0.384,-26.688 -18.799,-57.361 -32.131,-66.902 -13.871,-7.043 -30.496,-5.885 -47.89,-1.411 -15.644,11.242 -19.6,24.435 -21.127,38.032 -2.79,20.244 -1.91,41.962 7.041,66.902 m -61.357,20.072 c 13.614,-27.351 22.975,-57.126 11.885,-98.595 -17.885,-45.614 -40.926,-43.803 -64.704,-35.215 -27.754,14.149 -37.872,36.011 -43.577,61.625 -2.637,18.302 -2.201,38.331 0.44,58.98 3.075,14.236 11.141,24.653 21.129,34.771 16.433,13.129 34.775,15.771 55.899,3.083 7.633,-7.333 14.83,-14.962 18.928,-24.649 M 117.312,507.61 c 3.115,-4.996 8.968,-14.305 17.834,-19.301 -19.934,22.333 -23.744,39.338 -28.975,51.882 -12.142,38.976 -11.765,70.971 -2.538,100.57 7.801,15.695 18.527,30.58 35.277,42.535 23.203,16.882 50.589,20.598 83.09,-4.183 23.026,-23.748 29.135,-51.291 32.497,-79.838 1.832,19.494 5.221,38.988 19.496,58.486 37.887,48.264 91.94,40.017 121.621,-0.93 24.448,-36.769 28.131,-127.208 -24.138,-162.001 31.349,18.643 60.277,43.343 89.128,68.237 -4.644,-10.214 -13.466,-19.961 -18.108,-30.176 -12.079,-27.704 -10.683,-45.345 -4.175,-51.991 1.881,-1.592 3.269,-3.265 4.295,-5.004 -0.38,-0.514 -0.748,-1.023 -1.132,-1.538 -0.635,-9.397 -3.068,-13.777 -5.412,-14.877 -6.3,-4.916 -9.029,-12.603 -8.877,-23.058 1.659,-15.412 11.607,-32.205 19.482,-46.923 10.721,-24.713 9.514,-52.075 -9.226,-81.4 -32.033,-57.396 -79.991,-90.07 -148.614,-97.083 -54.352,-3.374 -102.371,9.561 -143.779,30.63 -20.704,10.443 -7.98,36.66 -1.344,46.878 0.819,-4.894 5.489,-9.018 9.06,-7.093 2.018,-10.884 12.729,-14.065 22.563,-12.19 8.504,-11.057 18.496,-10.009 29.647,-3.459 13.617,-9.625 25.255,-10.008 36.236,-1.153 20.656,-9.853 33.445,-5.784 42.659,4.612 16.781,-3.972 31.059,-4.857 39.039,10.538 14.281,-5.286 24.323,-0.534 31.566,10.902 12.308,-1.554 21.042,1.163 22.786,15.455 12.698,0.779 22.698,4.452 23.059,18.449 -3.843,9.607 -7.686,19.216 -11.528,28.824 19.374,19.275 11.084,45.462 -1.155,72.638 -1.343,1.071 -2.79,-1.204 -4.007,-2.097 -1.923,2.839 -7.845,7.485 -12.133,7.86 -13.054,-0.581 -19.818,-4.04 -21.369,-10.375 -14.806,2.203 -25.21,-3.053 -32.822,-10.917 -20.229,4.591 -33.442,0.826 -45.041,-7.532 -13.451,8.518 -27.983,6.155 -41.431,-1.154 -13.116,13.762 -26.954,15.299 -41.507,4.612 -5.583,8.728 -14.037,10.266 -25.366,4.613 -3.533,6.31 -10.303,6.689 -14.915,5.451 -0.284,5.766 1.946,15.302 4.539,21.069 -5.632,9.772 -12.528,10.707 -19.602,10.374 -12.948,0.64 -14.932,-15.615 -25.366,4.613 -6.118,19.616 -6.114,42.648 8.686,55.045" /><g
           id="g484"><g
             clip-path="url(#clipPath490)"
             id="g486"><g
               id="g492"><g
                 id="g494"><path
                   id="path506"
                   style="fill:url(#radialGradient504);fill-rule:evenodd;stroke:none"
                   d="m 323.832,578.518 c 9.249,0 16.745,-7.498 16.745,-16.745 0,-9.248 -7.496,-16.746 -16.745,-16.746 -9.249,0 -16.745,7.498 -16.745,16.746 0,9.247 7.496,16.745 16.745,16.745" /></g></g></g></g><g
           id="g508"><g
             clip-path="url(#clipPath514)"
             id="g510"><g
               id="g516"><g
                 id="g518"><path
                   id="path530"
                   style="fill:url(#radialGradient528);fill-rule:evenodd;stroke:none"
                   d="m 186.727,590.554 c 13.584,0 24.595,-11.013 24.595,-24.595 0,-13.582 -11.011,-24.594 -24.595,-24.594 -13.584,0 -24.595,11.012 -24.595,24.594 0,13.582 11.011,24.595 24.595,24.595" /></g></g></g></g><path
           id="path532"
           style="fill:#100f0d;fill-opacity:1;fill-rule:evenodd;stroke:none"
           d="m 186.466,571.715 c 3.612,0 6.542,-2.927 6.542,-6.542 0,-3.614 -2.93,-6.541 -6.542,-6.541 -3.612,0 -6.542,2.927 -6.542,6.541 0,3.615 2.93,6.542 6.542,6.542" /><path
           id="path534"
           style="fill:#100f0d;fill-opacity:1;fill-rule:evenodd;stroke:none"
           d="m 323.571,564.389 c 1.878,0 3.402,-1.522 3.402,-3.402 0,-1.879 -1.524,-3.402 -3.402,-3.402 -1.879,0 -3.402,1.523 -3.402,3.402 0,1.88 1.523,3.402 3.402,3.402" /><path
           id="path536"
           style="fill:#ffffff;fill-opacity:1;fill-rule:evenodd;stroke:none"
           d="m 171.465,609.952 c 6.984,1.848 14.324,-2.993 16.396,-10.819 2.071,-7.822 -1.912,-15.661 -8.896,-17.509 -6.985,-1.85 -14.326,2.991 -16.397,10.813 -2.071,7.826 1.912,15.665 8.897,17.515" /><path
           id="path538"
           style="fill:#ffffff;fill-opacity:1;fill-rule:evenodd;stroke:none"
           d="m 318.369,584.007 c 4.895,1.571 9.274,0.896 9.786,-1.511 0.511,-2.403 -3.041,-5.621 -7.935,-7.191 -4.893,-1.569 -9.274,-0.895 -9.785,1.507 -0.512,2.407 3.042,5.626 7.934,7.195" /><path
           id="path540"
           style="fill:#c5232b;fill-opacity:1;fill-rule:evenodd;stroke:none"
           d="m 242.092,304.441 c -1.765,13.584 -0.832,28.921 13.033,44.08 6.132,7.158 15.888,9.208 27.296,3.19 13.513,-11.521 25.053,-11.841 34.616,-0.965 20.348,25.728 37.481,28.967 51.404,9.726 -3.344,-0.215 -6.86,-0.573 -10.331,-0.889 -2.213,-1.799 -3.807,-3.496 -5,-5.126 -10.376,-5.388 -15.88,-13.694 -16.519,-24.924 -1.475,-1.828 -2.957,-3.665 -4.43,-5.492 -6.881,-2.343 -12.269,-5.426 -16.164,-9.259 -0.723,-0.333 -1.442,-0.666 -2.165,-0.998 -0.193,-0.544 -0.482,-1.049 -0.853,-1.52 -0.125,0.142 -0.25,0.286 -0.381,0.429 -4.545,-4.907 -17.308,-4.878 -28.961,-5.518 v -1.567 c -0.537,-0.038 -1.074,-0.076 -1.61,-0.114 -0.244,-0.02 -0.49,-0.038 -0.735,-0.058 -0.052,0.551 -0.105,1.103 -0.162,1.646 -13.432,-2.203 -26.218,-2.351 -39.038,-2.641" /><path
           id="path542"
           style="fill:#0994dc;fill-opacity:1;fill-rule:evenodd;stroke:none"
           d="m 142.242,283.289 c 1.137,-3.353 2.723,-6.138 7.468,-4.979 3.77,-9.89 10.627,-16.12 24.271,-14.313 7.831,-8.146 17.624,-11.508 31.739,-4.355 11.246,-6.302 23.053,-8.1 36.096,0 14.519,-6.239 29.041,-7.131 43.563,3.732 13.274,-4.76 26.552,-3.901 39.831,9.334 12.813,-3.273 23.959,-2.001 30.494,11.823 12.06,-2.253 20.979,3.139 26.76,16.184 11.743,2.308 19.837,7.704 19.915,19.915 5.093,-13.382 -4.785,-19.646 -16.803,-24.894 -4.081,-12.392 -14.329,-16.735 -27.383,-17.426 -7.175,-14.22 -18.556,-14.368 -31.118,-10.581 -12.923,-16.095 -26.631,-14.009 -40.451,-9.334 -15.946,-12.379 -30.659,-11.15 -44.808,-3.732 -13.045,-8.812 -24.852,-7.106 -36.096,-0.624 -13.395,-5.749 -24.351,-4.565 -32.36,4.98 -14.975,-0.009 -22.489,5.328 -24.895,14.312 -5.81,3.855 -6.705,7.005 -6.223,9.958" /><path
           id="path544"
           style="fill:#0a92db;fill-opacity:1;fill-rule:evenodd;stroke:none"
           d="m 228.926,501.148 c -22.752,-30.816 -46.207,-60.227 -74.583,-79.805 4.36,1.133 7.591,-0.357 9.697,-4.473 9.827,3.382 18.529,1.892 26.103,-4.477 16.488,7.257 30.536,6.285 41.02,-6.71 14.33,7.059 28.191,9.435 41.021,1.491 11.926,7.443 24.531,13.601 44.004,6.715 8.933,8.297 19.387,12.635 32.07,11.187 -27.099,13.753 -54.198,42.905 -81.296,79.054 9.2,-17.649 18.397,-35.302 27.597,-52.952 2.188,-4.224 1.442,-8.454 -2.237,-12.678 6.712,-6.217 13.425,-12.43 20.137,-18.647 -7.955,4.726 -13.081,10.075 -21.036,14.801 -6.163,1.558 -15.263,0.413 -18.424,-4.78 -1.243,-4.971 -0.318,-12.507 -1.561,-17.481 -1.491,5.471 -1.411,10.939 -2.902,16.41 -9.069,7.001 -20.836,7.249 -32.152,0.745 -1.242,-6.461 -2.487,-12.926 -3.728,-19.392 -0.499,6.963 -0.996,13.926 -1.493,20.884 -9.694,6.613 -20.798,7.691 -30.492,6.053 -3.233,-7.709 -5.057,-14.006 -8.29,-21.713 1.74,7.952 3.482,15.909 5.222,23.866 -2.094,7.518 -0.691,12.653 4.056,16.739 7.83,15.475 19.437,29.687 27.267,45.163" /><path
           id="path546"
           style="fill:#2c76b1;fill-opacity:1;fill-rule:evenodd;stroke:none"
           d="m 398.657,328.76 c -3.184,7.969 -6.371,15.93 -9.557,23.9 0.045,0.396 0.087,0.796 0.13,1.193 18.208,18.613 11.064,43.562 -0.427,69.597 5.59,-0.055 11.183,0.26 16.775,2.174 6.985,4.712 13.978,7.421 20.968,9.843 -5.991,-3.138 -11.983,-6.558 -17.973,-11.983 0.855,-5.278 1.712,-10.556 2.568,-15.834 3.993,-14.692 8.842,-29.384 2.566,-44.076 -6.43,-14.519 -9.085,-24.679 -15.05,-34.814" /><path
           id="path548"
           style="fill:#0a92db;fill-opacity:1;fill-rule:evenodd;stroke:none"
           d="m 139.948,274.546 c 9.813,-20.488 40.471,-33.58 102.329,-32.228 35.659,-0.581 70.22,5.476 104.745,18.53 25.416,7.467 43.632,19.257 61.237,31.423 -7.881,-33.787 -41.378,-49.923 -78.157,-63.651 -42.878,-12.582 -86.877,-14.271 -130.53,-2.418 -43.959,10.362 -64.594,26.297 -59.624,48.344" /><g
           id="g550"><g
             clip-path="url(#clipPath556)"
             id="g552"><g
               id="g558"><g
                 id="g560"><path
                   id="path568"
                   style="fill:url(#radialGradient566);fill-rule:evenodd;stroke:none"
                   d="m 365.135,334.067 c -5.872,-4.772 -12.348,-9.086 -19.429,-12.944 -3.059,0.732 -5.819,2.06 -8.283,3.981 1.874,3.732 4.348,7.295 11.033,9.654 5.058,0 10.885,0.513 15.941,0.513 0.243,-0.387 0.487,-0.792 0.738,-1.204" /></g></g></g></g><g
           id="g570"><g
             clip-path="url(#clipPath576)"
             id="g572"><g
               id="g578"><g
                 id="g580"><path
                   id="path588"
                   style="fill:url(#radialGradient586);fill-rule:evenodd;stroke:none"
                   d="m 314.919,313.069 c 0.226,0.497 0.497,0.982 0.807,1.45 4.122,4.166 9.976,7.46 17.56,9.894 4.019,-1.23 7.389,-2.784 10.111,-4.663 -7.697,-4.849 -15.528,-9.204 -24.026,-11.095 -1.771,1.474 -3.254,2.945 -4.452,4.414" /></g></g></g></g><g
           id="g590"><g
             clip-path="url(#clipPath596)"
             id="g592"><g
               id="g598"><g
                 id="g600"><path
                   id="path608"
                   style="fill:url(#radialGradient606);fill-rule:evenodd;stroke:none"
                   d="m 311.672,311.848 c 0.49,0.08 0.981,0.16 1.472,0.24 1.229,-1.407 2.196,-2.818 2.902,-4.225 0.027,-0.092 0.053,-0.185 0.08,-0.278 -7.828,-5.404 -19.134,-7.713 -32.491,-8.189 v 0.194 7.587 c 10.943,0.597 22.859,0.614 28.037,4.671" /></g></g></g></g><g
           id="g610"><g
             clip-path="url(#clipPath616)"
             id="g612"><g
               id="g618"><g
                 id="g620"><path
                   id="path628"
                   style="fill:url(#radialGradient626);fill-rule:evenodd;stroke:none"
                   d="m 240.885,304.147 c 1.894,0.131 3.789,0.266 5.682,0.397 10.813,0.24 21.655,0.564 32.938,2.283 0.545,0.037 1.093,0.075 1.638,0.113 0.261,-2.456 0.463,-5 0.63,-7.602 -0.076,0 -0.151,-0.005 -0.228,-0.005 -12.592,-4.103 -26.968,-2.848 -40.54,-4.006 -0.054,2.915 -0.09,5.86 -0.12,8.82" /></g></g></g></g><g
           id="g630"><g
             clip-path="url(#clipPath636)"
             id="g632"><g
               id="g638"><g
                 id="g640"><path
                   id="path648"
                   style="fill:url(#radialGradient646);fill-rule:evenodd;stroke:none"
                   d="m 224.81,305.74 c 2.36,-0.105 4.721,-0.282 7.084,-0.544 2.231,-0.366 4.267,-0.934 6.053,-1.781 0.183,-2.684 0.333,-5.408 0.461,-8.163 -12.655,0.492 -27.768,0.013 -38.171,2.62 -0.014,0.113 -0.027,0.223 -0.042,0.337 0.691,2.072 1.38,4.141 2.071,6.208 7.896,0.506 15.73,1.395 22.544,1.323" /></g></g></g></g><path
           id="path650"
           style="fill:#fff200;fill-opacity:1;fill-rule:evenodd;stroke:none"
           d="m 180.508,311.17 c 1.724,0 3.422,-0.038 5.065,-0.148 0.063,-0.189 0.128,-0.387 0.192,-0.577 -1.753,0.241 -3.531,0.472 -5.257,0.725" /><g
           id="g652"><g
             clip-path="url(#clipPath658)"
             id="g654"><g
               id="g660"><g
                 id="g662"><path
                   id="path670"
                   style="fill:url(#radialGradient668);fill-rule:evenodd;stroke:none"
                   d="m 179.355,311.161 c 0.384,0.004 0.765,0.009 1.144,0.009 6.416,-0.932 13.492,-1.567 17.519,-3.564 1.059,-0.704 2.02,-1.538 2.86,-2.527 -0.687,-2.292 -1.374,-4.579 -2.06,-6.87 0.002,-0.021 0.004,-0.043 0.009,-0.067 -8.987,1.04 -17.418,1.233 -24.754,3.917 -0.027,0.56 -0.052,1.112 -0.082,1.668 1.131,2.476 2.919,4.958 5.364,7.434" /></g></g></g></g><path
           id="path672"
           style="fill:#fff200;fill-opacity:1;fill-rule:evenodd;stroke:none"
           d="m 175.935,312.117 c 0.238,-0.105 0.474,-0.206 0.71,-0.307 -0.187,0.021 -0.375,0.034 -0.569,0.046 -0.046,0.088 -0.095,0.173 -0.141,0.261" /><path
           id="path674"
           style="fill:#fff200;fill-opacity:1;fill-rule:evenodd;stroke:none"
           d="m 166.58,316.396 c 2.241,-1.031 4.482,-2.08 6.725,-3.099 0.071,-0.122 0.147,-0.249 0.221,-0.371 -2.315,1.158 -4.631,2.317 -6.946,3.47" /><g
           id="g676"><g
             clip-path="url(#clipPath682)"
             id="g678"><g
               id="g684"><g
                 id="g686"><path
                   id="path694"
                   style="fill:url(#radialGradient692);fill-rule:evenodd;stroke:none"
                   d="m 159.901,319.362 c 2.216,-0.926 4.432,-1.929 6.647,-2.948 3.402,-1.702 6.803,-3.399 10.202,-5.101 -1.609,-2.3 -3.218,-4.6 -4.827,-6.896 0.019,-0.632 0.032,-1.259 0.051,-1.896 -7.759,1.311 -14.886,3.88 -20.733,9.032 -0.002,0.379 -0.006,0.759 -0.006,1.137 2.89,2.224 5.777,4.449 8.666,6.672" /></g></g></g></g><path
           id="path696"
           style="fill:#fff200;fill-opacity:1;fill-rule:evenodd;stroke:none"
           d="m 159.43,320.934 c 0.124,-0.519 0.28,-1.041 0.463,-1.568 h 0.006 c -0.071,-0.054 -0.136,-0.113 -0.208,-0.168 -0.088,0.093 -0.175,0.181 -0.263,0.27 -0.116,0.173 -0.228,0.345 -0.331,0.517 0.137,0.098 0.278,0.195 0.415,0.291 -0.03,0.219 -0.057,0.439 -0.082,0.658" /><g
           id="g698"><g
             clip-path="url(#clipPath704)"
             id="g700"><g
               id="g706"><g
                 id="g708"><path
                   id="path716"
                   style="fill:url(#radialGradient714);fill-rule:evenodd;stroke:none"
                   d="m 161.498,333.355 c -0.141,-0.122 -0.282,-0.244 -0.425,-0.362 -1.757,-4.191 -2.625,-7.957 -1.645,-12.055 0.025,-0.219 0.054,-0.438 0.084,-0.662 -3.218,-2.299 -6.436,-4.595 -9.655,-6.895 v -1.007 c -8.79,4.916 -13.925,11.444 -9.359,20.32 7.15,0.072 14.726,-1.356 21,0.661" /></g></g></g></g><g
           id="g718"><g
             clip-path="url(#clipPath724)"
             id="g720"><g
               id="g726"><g
                 id="g728"><path
                   id="path736"
                   style="fill:url(#radialGradient734);fill-rule:evenodd;stroke:none"
                   d="m 173.711,346.699 c -3.403,-4.519 -6.91,-8.538 -10.551,-11.878 -0.021,0.038 -0.04,0.075 -0.059,0.114 -5.428,-1.108 -12.203,-0.86 -19.587,0 0.571,7.67 4.324,12.944 12.731,14.725 5.792,-0.901 11.588,-1.798 17.382,-2.699 0.029,-0.089 0.057,-0.173 0.084,-0.262" /></g></g></g></g><g
           id="g738"><g
             clip-path="url(#clipPath744)"
             id="g740"><g
               id="g746"><g
                 id="g748"><path
                   id="path756"
                   style="fill:url(#radialGradient754);fill-rule:evenodd;stroke:none"
                   d="m 158.204,351.135 c -0.244,3.024 1.468,5.067 5.141,6.137 8.159,1.234 16.318,2.051 24.481,0 0.948,0.055 1.797,-0.043 2.549,-0.282 -5.761,-2.713 -11.192,-5.678 -15.746,-9.355 -0.008,0.02 -0.016,0.042 -0.023,0.062 -5.467,1.147 -10.935,2.292 -16.402,3.438" /></g></g></g></g><path
           id="path758"
           style="fill:#ed1c24;fill-opacity:1;fill-rule:evenodd;stroke:none"
           d="m 278.296,353.563 c 1.346,-0.5 2.725,-1.116 4.124,-1.853 9.334,-7.952 17.723,-10.572 25.172,-7.847 -8.072,-10.4 -14.395,-22.548 -18.972,-36.444 -1.668,-0.08 -3.334,-0.151 -4.985,-0.244 v -1.568 c -0.535,-0.037 -1.072,-0.075 -1.609,-0.113 -0.244,-0.021 -0.489,-0.038 -0.733,-0.059 -0.053,0.552 -0.105,1.104 -0.164,1.647 -11.538,-1.895 -22.599,-2.274 -33.614,-2.523 0.936,12.039 2.012,24.077 10.409,36.111 3.224,7.152 10.699,10.901 20.372,12.893" /><path
           id="path760"
           style="fill:#ed1c24;fill-opacity:1;fill-rule:evenodd;stroke:none"
           d="m 327.859,362.586 c 15.671,14.317 29.201,13.614 40.582,-2.114 -3.344,-0.215 -6.859,-0.569 -10.33,-0.889 -2.214,-1.799 -3.808,-3.496 -5,-5.126 -10.377,-5.388 -15.88,-13.694 -16.522,-24.924 -1.473,-1.828 -2.955,-3.66 -4.427,-5.493 -5.173,-1.761 -9.501,-3.942 -12.986,-6.546 -0.53,15.029 1.55,30.063 8.683,45.092" /><g
           id="g762"><g
             clip-path="url(#clipPath768)"
             id="g764"><g
               id="g770"><g
                 id="g772"><path
                   id="path780"
                   style="fill:url(#radialGradient778);fill-rule:evenodd;stroke:none"
                   d="m 349.905,348.075 c 0.55,-1.537 1.342,-3.197 2.507,-5.042 6.299,-1.382 12.599,-1.377 18.896,-1.179 6.653,4.085 11.473,9.082 15.89,14.288 -3.428,6.234 -16.56,4.591 -29.088,3.441 -5.231,-4.254 -6.994,-7.928 -8.205,-11.508" /></g></g></g></g><g
           id="g782"><g
             clip-path="url(#clipPath788)"
             id="g784"><g
               id="g790"><g
                 id="g792"><path
                   id="path804"
                   style="fill:url(#linearGradient802);fill-rule:evenodd;stroke:none"
                   d="m 110.487,536.736 c 7.889,-25.729 22.725,-44.826 41.09,-60.526 -12.553,2.895 -24.587,9.318 -35.473,20.54 -13.211,-18.324 1.78,-40.417 14.937,-41.074 35.563,-0.96 71.984,26.339 97.084,54.767 -32.048,-29.561 -60.531,-21.958 -86.506,4.974 -6.634,6.606 -11.615,15.372 -15.997,25.194 -11.351,30.054 -10.491,55.516 -5.955,81.527 5.689,18.311 14.339,34.945 39.17,45.593 15.745,6.074 30.296,4.073 43.859,-4.616 38.518,-33.151 49.158,-123.451 29.018,-149.572 4.118,4.575 8.469,13.387 14.054,13.185 14.422,53.414 -0.667,130.801 -39.536,157.405 -16.227,10.906 -33.986,10.459 -51.435,3.795 -26.149,-12.017 -42.513,-33.327 -52.275,-61.212 -5.512,-29.809 -2.224,-60.247 7.965,-89.98" /></g></g></g></g><g
           id="g806"><g
             clip-path="url(#clipPath812)"
             id="g808"><g
               id="g814"><g
                 id="g816"><path
                   id="path828"
                   style="fill:url(#linearGradient826);fill-rule:evenodd;stroke:none"
                   d="m 404.344,620.151 c 6.486,-19.393 6.12,-42.413 0.962,-68.861 -9.848,-41.515 -39.27,-62.627 -72.997,-63.334 12.278,-2.579 24.787,-3.097 38.11,3.756 28.571,16.592 54.543,36.651 79.975,57.434 -15.76,-16.373 -28.29,-34.911 -25.227,-63.874 -1.024,-14.527 -7.795,-21.141 -17.176,-24.152 -18.605,-3.556 -37.215,-2.2 -55.822,0.535 -32.687,9.999 -48.023,27.16 -62.799,44.552 17.809,-5.283 38.354,-7.106 53.674,0 15.008,11.331 28.746,30.867 34.352,57.968 3.256,17.548 2.89,35.622 0.549,53.975 -7.624,25.399 -18.981,32.956 -33.444,39.371 -13.538,4.373 -26.149,1.327 -40.088,-5.931 -12.626,-9.085 -20.871,-19.321 -26.09,-33.68 -9.267,-15.467 -12.774,-90.954 -8.524,-102.095 -5.964,7.822 -8.908,9.363 -14.264,10.029 1.786,27.847 1.798,114.883 36.071,143.299 20.764,14.688 43.232,21.92 71.395,10.197 19.578,-12.269 33.569,-28.794 41.343,-59.189" /></g></g></g></g></g></g></g></svg>